PathFileType	4	(X/Y/Z)	/Users/itak/Documents/Research/Walk-IL/dataset/trc/00267_00010.trc
DataRate	CameraRate	NumFrames	NumMarkers	Units	OrigDataRate	OrigDataStartFrame	OrigNumFrames
100.000000	100.000000	4	54	mm	100.000000	103	415
Frame#	Time	RPSI			LPSI			L3			STRN			T10			C7			CLAV			RBAK			LBAK			LSHO			LUPA			LAEL			LAOL			LWTS			LWPS			LFRA			LIFD			LHPS			LHTS			RSHO			RUPA			RAEL			RAOL			RWTS			RWPS			RFRA			RIFD			RHTS			RHPS			RBHD			LFHD			RFHD			LBHD			LHIP			RHIP			RASI			LKNE			LTHI			LANK			LTIP			LTOE			LMT1			LMT5			LHEE			RKNE			RTHI			RANK			RTIP			RTOE			RMT1			RMT5			RHEE			LASI			*53			
		X1	Y1	Z1	X2	Y2	Z2	X3	Y3	Z3	X4	Y4	Z4	X5	Y5	Z5	X6	Y6	Z6	X7	Y7	Z7	X8	Y8	Z8	X9	Y9	Z9	X10	Y10	Z10	X11	Y11	Z11	X12	Y12	Z12	X13	Y13	Z13	X14	Y14	Z14	X15	Y15	Z15	X16	Y16	Z16	X17	Y17	Z17	X18	Y18	Z18	X19	Y19	Z19	X20	Y20	Z20	X21	Y21	Z21	X22	Y22	Z22	X23	Y23	Z23	X24	Y24	Z24	X25	Y25	Z25	X26	Y26	Z26	X27	Y27	Z27	X28	Y28	Z28	X29	Y29	Z29	X30	Y30	Z30	X31	Y31	Z31	X32	Y32	Z32	X33	Y33	Z33	X34	Y34	Z34	X35	Y35	Z35	X36	Y36	Z36	X37	Y37	Z37	X38	Y38	Z38	X39	Y39	Z39	X40	Y40	Z40	X41	Y41	Z41	X42	Y42	Z42	X43	Y43	Z43	X44	Y44	Z44	X45	Y45	Z45	X46	Y46	Z46	X47	Y47	Z47	X48	Y48	Z48	X49	Y49	Z49	X50	Y50	Z50	X51	Y51	Z51	X52	Y52	Z52	X53	Y53	Z53	X54	Y54	Z54	

104	1.03	270.9394836425781	978.4794311523438	-4.031227111816406	278.7337036132812	981.6092529296875	-178.258056640625	297.9297790527344	1060.93212890625	-94.48538208007812	571.732177734375	1223.077514648438	-86.60434722900391	298.1401977539062	1182.823364257812	-99.91891479492188	368.8162231445312	1419.370483398438	-125.3714447021484	517.3048706054688	1327.183959960938	-100.50390625	299.0352172851562	1294.1240234375	-44.48367691040039	356.5687255859375	1377.129272460938	-228.2735748291016	450.1967163085938	1374.62548828125	-271.6912231445312	420.4849853515625	1257.601318359375	-342.8783874511719	408.0940551757812	1057.18359375	-357.4720458984375	341.4305114746094	1047.783813476562	-301.5433959960938	476.3211059570312	836.4583740234375	-313.2298889160156	440.7130432128906	826.9380493164062	-375.4771118164062	415.43798828125	954.1265869140625	-367.8294982910156	470.4631958007812	648.693603515625	-318.8594360351562	440.8623962402344	737.2327270507812	-374.3816528320312	494.9900817871094	737.294677734375	-336.9655151367188	421.4081420898438	1405.84521484375	39.62027740478516	404.7211303710938	1353.521850585938	111.0884552001953	360.8519897460938	1092.607299804688	170.7119293212891	321.0672302246094	1084.183837890625	82.92322540283203	437.0959777832031	861.975341796875	135.4517364501953	393.0252380371094	865.8955078125	207.8101348876953	376.7071533203125	1024.962524414062	187.6635437011719	427.3421630859375	679.1376953125	146.4841461181641	455.5588989257812	746.174560546875	159.6365814208984	406.6569213867188	752.599609375	210.5232696533203	414.791259765625	1585.226318359375	-58.41675567626953	585.459228515625	1593.288452148438	-184.4662475585938	587.1901245117188	1598.117553710938	-91.82308959960938	412.0005493164062	1566.784790039062	-205.0583190917969	353.5271301269531	937.2411499023438	-273.2134704589844	369.8902282714844	933.4800415039062	100.2642211914062	490.0913391113281	944.1607666015625	30.68762969970703	434.8934936523438	469.2017517089844	-209.9245452880859	427.5415344238281	610.0887451171875	-243.4408416748047	287.6786804199219	45.14683532714844	-147.3960876464844	359.2746276855469	247.4776458740234	-187.6435089111328	496.3987121582031	36.19202423095703	-90.23731994628906	424.125	26.44389533996582	-49.45177459716797	412.971923828125	44.28794097900391	-159.1373596191406	240.0052642822266	42.00177764892578	-89.26685333251953	622.2154541015625	529.6995849609375	69.97036743164062	501.5039978027344	762.3568115234375	101.628288269043	483.0648498535156	96.67991638183594	40.43650054931641	620.9320678710938	403.7607727050781	58.03840637207031	673.988525390625	88.47602844238281	-6.831967353820801	620.0540161132812	87.22068023681641	-49.22002792358398	583.630126953125	71.67411041259766	63.40240478515625	432.5224914550781	106.2374725341797	-11.38674449920654	488.6593933105469	945.28271484375	-221.0710601806641	nan	nan	nan	
105	1.04	265.1505737304688	979.8983154296875	-4.6479811668396	273.4350891113281	982.7010498046875	-178.8034820556641	292.3820190429688	1062.076538085938	-95.13301086425781	565.408203125	1225.234619140625	-86.68389129638672	292.14697265625	1183.824951171875	-100.7317428588867	362.0622253417969	1420.635131835938	-126.046989440918	510.5769348144531	1329.204711914062	-100.7166976928711	292.2975158691406	1295.1884765625	-45.45650100708008	350.2465515136719	1378.355102539062	-228.9182739257812	443.9574584960938	1376.288208007812	-272.1759033203125	414.3294372558594	1259.390380859375	-343.3896179199219	400.5625915527344	1059.035766601562	-357.8477478027344	333.6756896972656	1050.31640625	-302.1355285644531	463.1963806152344	836.062744140625	-313.645751953125	427.6854248046875	827.6183471679688	-376.0435180664062	405.7763671875	955.6338500976562	-368.3065795898438	450.5459289550781	648.5252685546875	-318.7125244140625	424.9218444824219	738.064208984375	-374.8893432617188	478.4196472167969	736.0684204101562	-336.8156433105469	413.9101257324219	1407.334716796875	39.13075637817383	397.0092468261719	1355.046020507812	110.4915542602539	353.3822631835938	1094.412475585938	170.2931518554688	314.1038208007812	1085.550170898438	82.21250152587891	430.0548706054688	863.4441528320312	135.7279968261719	385.5144958496094	867.4700927734375	207.74755859375	369.2967224121094	1026.556884765625	187.1934051513672	419.9605407714844	680.5875244140625	146.9347229003906	448.2605285644531	747.627685546875	160.1807861328125	399.0014038085938	754.1680297851562	210.7256011962891	408.1342468261719	1586.67919921875	-58.65124130249023	579.2679443359375	1594.516235351562	-184.0696716308594	580.709228515625	1599.087158203125	-91.39930725097656	405.803955078125	1568.637939453125	-205.3282012939453	348.1127014160156	938.2391967773438	-273.6119689941406	363.7074279785156	935.0440063476562	99.84351348876953	484.3360595703125	945.830078125	30.68520927429199	429.3189392089844	470.3940734863281	-209.9523315429688	421.7984924316406	611.147216796875	-243.4095153808594	287.5777587890625	44.90535354614258	-147.3970031738281	356.0065307617188	248.1784362792969	-187.6879730224609	496.378662109375	36.30397796630859	-90.25138854980469	424.1499633789062	26.48031997680664	-49.48817825317383	412.9915466308594	44.2723388671875	-159.2270355224609	239.95751953125	41.56318283081055	-89.19857788085938	615.1947021484375	530.4568481445312	70.58024597167969	495.1842041015625	763.552978515625	101.2014770507812	457.2769165039062	103.8028030395508	40.84531021118164	609.1492309570312	404.826904296875	58.5197639465332	647.9512329101562	88.56163024902344	-6.058212757110596	594.083984375	89.34949493408203	-48.51113128662109	556.9066162109375	75.03474426269531	63.99430465698242	407.3432312011719	115.5134582519531	-11.04077053070068	483.3553161621094	946.5046997070312	-221.1242065429688	nan	nan	nan	
106	1.05	259.43505859375	981.1179809570312	-5.200360298156738	268.1878356933594	983.6676025390625	-179.2853546142578	286.8805541992188	1062.985107421875	-95.71586608886719	559.0603637695312	1227.2294921875	-86.80808258056641	286.0984802246094	1184.62646484375	-101.5073928833008	355.2590026855469	1421.732421875	-126.7406387329102	503.8448181152344	1331.0751953125	-100.9851989746094	285.5452880859375	1296.056396484375	-46.42824172973633	343.8636779785156	1379.373657226562	-229.5679321289062	437.6448669433594	1377.760009765625	-272.70458984375	407.9883728027344	1260.991333007812	-343.9013671875	392.7717590332031	1060.744750976562	-358.2155456542969	325.7106018066406	1052.687255859375	-302.6704711914062	450.1574401855469	835.8197631835938	-314.0594787597656	414.8265380859375	828.3902587890625	-376.614501953125	396.0326843261719	957.1175537109375	-368.7778015136719	430.8853454589844	648.724853515625	-318.5023498535156	409.2161865234375	739.07177734375	-375.3765563964844	462.0185852050781	735.0958251953125	-336.6092834472656	406.395751953125	1408.682006835938	38.61830520629883	389.2657165527344	1356.440673828125	109.8808364868164	345.9096374511719	1096.092407226562	169.9417266845703	307.2217102050781	1086.752075195312	81.48094177246094	423.2055053710938	864.8607788085938	136.0794830322266	378.1664428710938	868.9287719726562	207.7446441650391	361.8849487304688	1028.026733398438	186.7953033447266	412.906982421875	681.9714965820312	147.3940124511719	441.2901916503906	749.0555419921875	160.7990570068359	391.6325073242188	755.6400756835938	210.9683227539062	401.3664245605469	1587.984375	-58.9018669128418	572.9629516601562	1595.673217773438	-183.6730804443359	574.1058959960938	1599.989990234375	-90.97786712646484	399.5082397460938	1570.336669921875	-205.6170654296875	342.7559204101562	939.1289672851562	-273.9608764648438	357.6578063964844	936.344970703125	99.46889495849609	478.7840270996094	947.2772216796875	30.79815483093262	423.8164672851562	471.4670104980469	-209.9870147705078	416.0734252929688	612.126220703125	-243.3994140625	287.4573669433594	44.64541244506836	-147.3955688476562	352.8014831542969	248.7806549072266	-187.7220306396484	496.2926940917969	36.33601760864258	-90.20932006835938	424.1871337890625	26.49675941467285	-49.51816558837891	412.9958801269531	44.25032043457031	-159.3189849853516	239.8771667480469	41.13751220703125	-89.14163970947266	607.62353515625	530.5752563476562	71.22051239013672	488.8553771972656	764.3248901367188	100.8267288208008	431.0429077148438	111.32958984375	41.38501739501953	596.7711181640625	405.4805297851562	59.07715225219727	621.2863159179688	88.78691101074219	-5.039240837097168	567.5892944335938	91.62382507324219	-47.59311294555664	529.5765991210938	78.73410797119141	64.83371734619141	381.9369812011719	125.0737228393555	-10.618239402771	478.1021423339844	947.593994140625	-221.1082763671875	nan	nan	nan	
107	1.06	253.792724609375	982.1265258789062	-5.676987171173096	262.96630859375	984.5084838867188	-179.7029266357422	281.4126586914062	1063.672119140625	-96.22517395019531	552.6848754882812	1229.040405273438	-86.96755981445312	279.9909362792969	1185.218383789062	-102.2393569946289	348.4076232910156	1422.657470703125	-127.4442672729492	497.1148376464844	1332.765502929688	-101.3016357421875	278.7912902832031	1296.729248046875	-47.3797492980957	337.4198303222656	1380.190185546875	-230.218017578125	431.2611389160156	1379.029174804688	-273.2677917480469	401.4343872070312	1262.399536132812	-344.412841796875	384.6544189453125	1062.312866210938	-358.5652160644531	317.49853515625	1054.901000976562	-303.1058044433594	437.2355346679688	835.7255859375	-314.4880676269531	402.1265258789062	829.2380981445312	-377.1893310546875	386.1513366699219	958.5624389648438	-369.2414855957031	411.6143188476562	649.2532958984375	-318.28857421875	393.78173828125	740.2083740234375	-375.8544311523438	445.8677673339844	734.3765869140625	-336.4023742675781	398.8789367675781	1409.875244140625	38.08849716186523	381.5110778808594	1357.693725585938	109.2650756835938	338.45068359375	1097.609130859375	169.6346740722656	300.4258117675781	1087.77001953125	80.74603271484375	416.5450439453125	866.20458984375	136.4897308349609	370.9910278320312	870.2568359375	207.7966918945312	354.483154296875	1029.3564453125	186.4622039794922	406.1515502929688	683.2664184570312	147.8493041992188	434.643798828125	750.4396362304688	161.4796295166016	384.5623779296875	757.00244140625	211.2527923583984	394.4979858398438	1589.1357421875	-59.17120361328125	566.5477294921875	1596.743896484375	-183.2903289794922	567.3848876953125	1600.817138671875	-90.57518005371094	393.1076965332031	1571.8671875	-205.9290008544922	337.4575805664062	939.9210815429688	-274.2613220214844	351.7559814453125	937.3694458007812	99.14193725585938	473.4445495605469	948.4888305664062	31.01036262512207	418.466064453125	472.4349365234375	-210.0202789306641	410.4669189453125	613.035888671875	-243.4115447998047	287.3190612792969	44.37166213989258	-147.3948364257812	349.7140502929688	249.2965087890625	-187.7447204589844	496.1517639160156	36.29901885986328	-90.11923980712891	424.2245483398438	26.48931884765625	-49.53564453125	412.9839172363281	44.22237777709961	-159.413818359375	239.7653198242188	40.73463821411133	-89.10541534423828	599.4872436523438	530.0413818359375	71.87850189208984	482.5282592773438	764.6631469726562	100.5125885009766	404.4773559570312	119.2677917480469	42.0562744140625	583.8229370117188	405.7196350097656	59.6993293762207	594.0592041015625	89.16073608398438	-3.844706296920776	540.618896484375	94.05352783203125	-46.5178108215332	501.7371215820312	82.74063873291016	65.88056945800781	356.3855285644531	134.8772735595703	-10.10672950744629	472.8866882324219	948.5628051757812	-221.0452880859375	nan	nan	nan	
